<?xml version="1.0" standalone="no"?>
<!DOCTYPE svg PUBLIC "-//W3C//DTD SVG 20010904//EN"
 "http://www.w3.org/TR/2001/REC-SVG-20010904/DTD/svg10.dtd">
<svg version="1.0" xmlns="http://www.w3.org/2000/svg"
 width="600.000000pt" height="493.000000pt" viewBox="0 0 600.000000 493.000000"
 preserveAspectRatio="xMidYMid meet">

<g transform="translate(0.000000,493.000000) scale(0.100000,-0.100000)"
fill="#000000" stroke="none">
<path d="M3119 4567 c-21 -14 -203 -254 -492 -652 l-458 -629 43 -35 c24 -19
611 -602 1306 -1295 1082 -1081 1262 -1265 1262 -1289 0 -18 11 -39 29 -58
l29 -29 377 0 c250 0 383 4 396 11 50 26 54 114 8 152 -19 15 -53 17 -388 17
l-366 0 -1030 1030 -1030 1030 563 0 562 0 0 -492 c0 -317 4 -507 11 -531 14
-52 71 -112 125 -133 85 -32 185 -1 239 75 l30 43 2 786 3 787 -489 585 c-539
645 -544 650 -647 650 -37 0 -61 -6 -85 -23z m335 -732 l183 -240 -183 -3
c-100 -1 -269 -1 -374 0 l-192 3 184 242 c101 133 187 241 191 240 4 -1 90
-110 191 -242z"/>
<path d="M4513 4206 c-224 -73 -331 -322 -228 -533 37 -74 103 -139 183 -176
60 -28 77 -32 157 -32 80 0 97 4 155 31 296 140 298 556 2 692 -69 31 -201 40
-269 18z"/>
<path d="M2091 3147 c-64 -84 -167 -261 -188 -320 -11 -32 -18 -81 -18 -127 0
-122 25 -163 219 -355 187 -185 427 -405 711 -653 110 -96 201 -176 202 -176
1 -1 -51 -195 -116 -431 l-118 -430 441 -3 c243 -2 460 0 483 3 62 9 93 38 93
86 0 65 -49 103 -273 215 l-194 97 44 141 c113 361 135 448 131 516 -7 123 10
103 -713 829 l-662 664 -42 -56z"/>
<path d="M1616 2119 c-109 -182 -205 -333 -214 -336 -8 -4 -155 1 -326 11
-171 9 -319 16 -329 16 -17 0 -18 -24 -15 -469 3 -445 4 -470 22 -490 12 -13
31 -21 53 -21 60 0 99 50 249 314 l138 243 246 -4 245 -5 220 373 c121 205
221 376 223 379 1 4 -34 35 -80 70 -103 80 -190 168 -212 214 -9 20 -18 36
-20 36 -1 0 -91 -149 -200 -331z"/>
<path d="M424 1901 c-46 -28 -64 -59 -64 -109 0 -38 6 -50 39 -83 32 -32 46
-39 77 -39 136 0 181 185 57 236 -44 19 -72 17 -109 -5z"/>
<path d="M433 1595 c-63 -27 -91 -112 -58 -175 32 -62 129 -80 184 -35 35 30
55 83 46 124 -7 33 -48 75 -88 90 -36 14 -45 13 -84 -4z"/>
<path d="M418 1274 c-58 -31 -75 -116 -35 -175 44 -66 139 -70 191 -8 49 58
46 111 -9 166 -27 27 -40 33 -76 33 -24 -1 -56 -7 -71 -16z"/>
<path d="M419 963 c-62 -38 -79 -128 -34 -182 30 -35 84 -55 125 -46 40 9 88
58 95 99 19 100 -100 182 -186 129z"/>
<path d="M2736 489 c-80 -63 -70 -166 20 -209 40 -20 48 -21 86 -8 75 23 109
108 73 178 -30 59 -127 80 -179 39z"/>
<path d="M3041 485 c-78 -67 -54 -181 47 -216 42 -14 93 3 127 42 30 36 34
106 9 145 -38 58 -131 72 -183 29z"/>
<path d="M3368 494 c-60 -32 -78 -129 -33 -183 34 -39 85 -56 127 -42 101 35
125 149 47 216 -35 29 -97 33 -141 9z"/>
<path d="M3682 496 c-109 -60 -63 -229 63 -229 114 0 165 133 80 211 -28 26
-43 32 -77 32 -24 -1 -53 -6 -66 -14z"/>
</g>
</svg>
