<?xml version="1.0" standalone="no"?>
<!DOCTYPE svg PUBLIC "-//W3C//DTD SVG 20010904//EN"
 "http://www.w3.org/TR/2001/REC-SVG-20010904/DTD/svg10.dtd">
<svg version="1.0" xmlns="http://www.w3.org/2000/svg"
 width="612.000000pt" height="288.000000pt" viewBox="0 0 612.000000 288.000000"
 preserveAspectRatio="xMidYMid meet">

<g transform="translate(0.000000,288.000000) scale(0.100000,-0.100000)"
fill="#000000" stroke="none">
<path d="M3880 2867 c-43 -15 -67 -56 -81 -136 -14 -76 -8 -98 36 -151 19 -23
35 -52 35 -65 0 -29 -45 -59 -115 -76 -102 -25 -125 -46 -160 -150 -14 -41
-35 -98 -47 -127 -17 -40 -19 -55 -10 -61 14 -9 -9 -83 -52 -165 -30 -58 -31
-73 -10 -209 9 -56 16 -112 15 -125 0 -13 5 -35 13 -50 9 -17 12 -44 9 -73 -3
-29 -1 -49 6 -53 6 -4 11 -22 11 -40 0 -23 7 -38 22 -48 l21 -14 -27 -390
c-14 -214 -29 -404 -32 -422 -5 -32 -5 -32 -34 -17 -15 8 -38 28 -50 45 -27
38 -50 39 -50 3 1 -41 31 -101 83 -165 30 -37 42 -59 35 -66 -6 -6 2 -20 24
-42 l33 -32 -37 6 c-26 5 -40 2 -52 -9 -21 -21 -21 -69 0 -90 21 -21 64 -16
78 10 6 11 12 22 14 24 1 3 9 -5 18 -17 21 -30 83 -31 91 -2 5 18 7 19 17 4
18 -23 78 -15 92 13 l11 23 21 -25 c16 -18 32 -25 60 -25 47 0 62 14 62 57 0
30 3 33 29 33 35 0 47 14 54 60 3 19 10 52 15 73 7 26 7 48 0 68 -7 20 -6 39
2 65 10 29 10 41 0 60 -11 20 -10 35 8 98 12 41 22 88 22 104 0 20 6 31 18 35
28 7 34 57 17 145 -22 115 -20 137 30 242 38 80 45 105 45 156 0 39 10 91 26
140 14 43 23 89 21 101 -2 14 1 23 8 23 24 0 26 108 3 197 -26 104 -19 198 13
188 12 -4 19 -2 19 7 1 7 9 3 20 -11 16 -19 20 -38 20 -105 0 -64 6 -101 29
-167 32 -96 45 -176 29 -181 -12 -4 -36 -65 -50 -132 -10 -44 -9 -51 8 -65 13
-11 18 -26 16 -45 -4 -34 10 -51 35 -41 10 4 27 8 37 9 46 3 81 137 51 196
-15 29 -16 54 -10 204 6 163 5 176 -19 270 -27 104 -32 142 -17 148 19 7 -11
153 -47 227 -37 76 -67 104 -127 117 -16 4 -60 22 -97 40 -76 38 -81 50 -48
114 22 42 27 140 11 182 -14 35 -72 96 -104 107 -36 14 -73 13 -117 -2z m-206
-931 c31 -87 30 -85 10 -107 -12 -14 -13 -22 -4 -38 9 -17 8 -22 -5 -27 -18
-7 -20 -35 -4 -51 8 -8 5 -19 -10 -40 -14 -19 -21 -45 -22 -80 -1 -29 -5 -57
-9 -63 -8 -13 -33 20 -45 60 -4 14 -12 30 -17 37 -12 15 -2 83 23 146 12 29
19 73 19 111 0 63 15 126 30 126 4 0 19 -33 34 -74z m213 -1045 c21 -10 24
-16 19 -39 -13 -60 -18 -159 -8 -178 5 -10 13 -38 17 -60 6 -41 6 -42 -23 -40
-46 2 -62 21 -51 61 9 33 1 91 -20 149 -11 28 0 108 22 161 l12 30 3 -36 c2
-28 9 -39 29 -48z m-224 -169 c7 -20 20 -59 27 -85 12 -43 11 -49 -5 -61 -15
-11 -17 -20 -11 -52 18 -93 0 -134 -67 -157 l-44 -15 -7 67 c-8 85 -8 232 0
308 l7 61 42 -15 c35 -11 46 -21 58 -51z"/>
<path d="M4905 2797 c-30 -30 -35 -41 -35 -83 0 -32 7 -59 20 -79 11 -16 20
-38 20 -48 0 -11 9 -32 20 -47 l20 -28 -35 -31 c-20 -17 -53 -40 -73 -50 -63
-32 -107 -92 -181 -246 -46 -95 -76 -145 -86 -145 -27 0 -48 -67 -40 -129 8
-75 14 -91 30 -91 8 0 23 -17 34 -38 11 -21 38 -62 60 -90 23 -28 41 -62 41
-75 0 -14 7 -30 15 -37 8 -7 17 -27 21 -46 4 -19 14 -36 24 -39 41 -13 41 -20
-5 -394 -25 -199 -45 -366 -45 -372 0 -12 -51 -12 -83 0 -14 5 -41 24 -61 41
-39 35 -66 34 -66 0 0 -78 143 -194 216 -176 32 8 48 49 35 87 -7 20 2 126 34
396 40 335 47 373 72 420 26 51 27 53 10 87 -10 22 -31 43 -56 56 -44 22 -54
45 -66 155 -4 33 -16 84 -28 113 l-21 52 26 28 c14 15 34 41 44 57 50 84 89
98 100 38 8 -46 20 -71 47 -100 29 -33 40 -116 20 -158 -15 -31 -14 -35 8 -79
22 -46 22 -47 6 -94 -9 -26 -17 -63 -17 -82 0 -56 27 -242 40 -275 6 -16 9
-44 5 -61 -4 -22 4 -63 25 -127 27 -86 30 -104 24 -175 -6 -77 -6 -81 29 -153
43 -88 54 -133 38 -153 -9 -10 -9 -16 -1 -21 8 -5 7 -12 -4 -24 -14 -15 -13
-20 4 -46 11 -17 20 -36 20 -43 0 -24 -53 -89 -87 -108 -37 -19 -46 -60 -15
-71 40 -14 44 -25 12 -44 -25 -16 -30 -25 -30 -59 0 -33 4 -42 25 -52 20 -9
28 -8 42 5 14 12 23 13 36 5 14 -7 23 -6 35 5 12 11 22 13 34 6 19 -11 58 4
58 21 0 5 11 4 26 -2 22 -11 28 -10 40 7 18 25 18 55 -2 84 -14 19 -14 29 -4
67 14 51 7 126 -16 173 -11 23 -14 45 -10 75 5 33 3 46 -9 56 -14 12 -15 29
-10 124 6 94 4 119 -11 166 -13 38 -18 77 -16 125 1 39 4 99 5 135 1 36 7 72
12 80 6 8 11 40 12 70 2 80 14 160 24 160 5 0 16 -17 24 -37 9 -21 34 -68 57
-105 22 -37 50 -91 62 -120 12 -29 33 -73 48 -98 15 -25 30 -58 34 -73 4 -19
11 -26 21 -23 10 4 20 -8 34 -38 10 -24 25 -46 33 -49 7 -3 19 -27 25 -54 14
-56 54 -128 76 -136 26 -11 54 -68 48 -98 -4 -21 3 -41 25 -76 17 -27 35 -66
41 -87 6 -22 23 -55 39 -75 16 -20 32 -49 36 -66 9 -37 33 -65 56 -65 10 0 25
-11 34 -25 9 -13 22 -22 30 -19 7 3 21 -7 30 -21 10 -15 23 -24 30 -22 8 3 19
-6 25 -20 14 -30 45 -27 49 5 2 12 -8 46 -21 76 -19 42 -24 64 -20 100 l6 47
-87 84 c-77 74 -86 87 -76 104 8 17 7 23 -10 33 -11 7 -20 20 -20 29 0 8 -11
25 -24 36 -15 13 -26 37 -31 65 -25 162 -26 166 -76 238 -38 56 -49 80 -49
110 0 46 -22 135 -43 176 -8 16 -22 81 -32 144 -9 63 -28 150 -43 193 -20 61
-23 80 -13 87 10 6 10 14 -3 38 -9 17 -16 39 -16 48 0 10 -10 28 -22 42 -23
24 -29 59 -25 162 1 25 1 95 1 155 -2 166 -44 259 -133 300 -23 10 -41 24 -41
32 0 9 -14 13 -42 13 -24 0 -48 4 -53 8 -11 8 -34 77 -42 132 -14 87 -96 150
-205 158 -55 4 -59 3 -93 -31z m215 -2517 c-19 -13 -30 -13 -30 0 0 6 10 10
23 10 18 0 19 -2 7 -10z"/>
<path d="M1145 2785 c-22 -8 -41 -15 -41 -15 -1 0 -9 -18 -18 -40 -19 -47 -21
-128 -5 -164 16 -35 4 -74 -26 -82 -14 -3 -25 -12 -25 -19 0 -7 -26 -22 -58
-33 -88 -32 -132 -77 -196 -196 -31 -58 -60 -124 -66 -148 -9 -41 -8 -44 20
-70 26 -24 30 -35 30 -78 0 -28 -7 -65 -16 -83 -15 -27 -15 -40 -5 -92 6 -33
13 -117 14 -186 2 -127 2 -127 -25 -152 -16 -15 -28 -33 -28 -40 0 -11 -56
-29 -203 -65 l-202 -49 -65 24 c-71 26 -121 68 -151 126 -14 27 -26 37 -44 37
-13 0 -27 -5 -30 -10 -24 -39 68 -158 166 -217 76 -45 82 -46 114 -21 36 28
408 122 433 109 9 -4 38 -8 65 -7 l47 1 0 -57 c0 -33 -7 -72 -17 -93 -15 -30
-15 -41 -4 -68 7 -18 13 -63 15 -102 2 -66 -1 -76 -47 -170 -45 -93 -50 -109
-61 -217 -10 -98 -15 -121 -34 -141 -16 -17 -26 -44 -32 -85 -4 -33 -13 -69
-20 -81 -6 -12 -8 -25 -5 -30 2 -5 -4 -29 -15 -52 -25 -55 -25 -66 -1 -74 19
-6 19 -7 -5 -42 -13 -20 -24 -41 -24 -47 0 -33 57 -49 79 -22 6 7 22 11 36 8
16 -3 27 1 31 11 3 9 12 13 20 10 8 -3 22 -2 32 3 9 4 25 8 36 8 27 1 64 52
48 68 -9 9 -5 15 19 25 27 11 30 16 27 50 -2 30 -8 38 -28 43 -14 3 -32 18
-40 33 -14 24 -13 31 4 74 10 27 20 63 23 81 4 27 2 34 -15 39 -18 4 -19 8 -9
36 6 18 26 57 44 87 18 30 33 67 33 81 0 15 7 30 15 33 9 3 26 28 39 56 13 28
30 58 39 68 14 16 26 54 31 99 1 12 8 28 14 35 6 8 11 35 10 60 0 27 6 55 17
72 15 23 16 34 6 83 -13 67 -14 140 -2 147 15 9 63 -135 67 -198 2 -43 9 -65
24 -81 16 -17 23 -41 27 -85 5 -50 10 -64 29 -77 19 -12 24 -24 24 -56 0 -23
7 -48 16 -59 11 -11 20 -47 25 -100 4 -46 16 -108 27 -138 16 -48 17 -65 9
-127 -8 -52 -7 -79 1 -95 6 -13 14 -42 17 -65 4 -23 15 -53 26 -67 10 -13 19
-32 19 -43 0 -26 16 -47 29 -39 6 4 11 0 11 -11 1 -32 38 -103 55 -103 17 0
47 60 44 88 -3 34 1 51 19 68 21 21 18 119 -4 141 -14 14 -16 22 -18 75 0 14
-4 30 -8 34 -5 4 -8 18 -8 32 0 14 -7 30 -16 37 -23 16 -30 106 -13 158 10 31
11 41 1 45 -8 2 -12 28 -13 75 0 103 -11 153 -31 149 -24 -4 -33 49 -14 85 22
44 25 241 4 272 -12 17 -14 31 -8 52 8 26 -9 123 -25 150 -3 4 -1 10 5 14 5 3
10 15 10 25 0 22 39 38 50 21 3 -7 14 -9 23 -5 12 4 17 1 17 -11 0 -16 1 -16
23 -1 12 9 48 29 80 43 40 19 59 33 63 50 8 28 -18 70 -52 85 -13 6 -24 17
-24 24 0 7 -14 22 -30 34 -43 31 -112 157 -104 192 7 34 -28 88 -57 88 -10 0
-19 7 -19 15 0 9 9 15 24 15 42 0 47 17 35 136 -15 141 -21 156 -77 187 -26
15 -41 27 -34 27 6 0 12 6 12 13 0 21 31 78 45 83 10 4 12 30 9 107 l-4 102
-37 34 c-69 61 -136 75 -218 46z m308 -1050 c35 -44 39 -54 34 -93 -6 -51 -11
-58 -54 -67 -31 -6 -32 -5 -38 32 -4 21 -11 49 -16 63 -5 14 -11 45 -13 70 -5
43 -4 45 21 45 20 0 37 -13 66 -50z"/>
<path d="M1837 2740 c-93 -17 -141 -143 -90 -242 8 -17 9 -28 3 -28 -5 0 -10
-6 -10 -14 0 -17 48 -76 61 -76 12 0 80 -75 97 -106 10 -20 10 -29 -3 -53 -19
-38 -19 -94 0 -131 8 -16 20 -53 26 -82 6 -29 18 -64 26 -78 13 -23 12 -33
-12 -105 -15 -44 -37 -93 -49 -110 -37 -49 -66 -112 -66 -144 0 -17 -7 -46
-16 -65 -22 -45 -14 -63 38 -85 24 -10 49 -26 57 -35 19 -22 34 -20 28 4 -3
11 -2 20 1 20 3 0 39 -21 79 -47 67 -44 73 -50 67 -75 -3 -17 -1 -28 5 -28 7
0 11 -24 11 -59 0 -50 -4 -65 -27 -91 -20 -25 -24 -36 -16 -49 5 -9 8 -42 5
-74 -4 -50 -1 -62 22 -98 15 -22 42 -74 61 -115 20 -45 40 -74 49 -74 9 0 20
-16 27 -42 6 -24 15 -48 20 -55 6 -6 7 -22 4 -36 -4 -15 0 -38 10 -57 10 -19
15 -46 12 -64 -3 -20 1 -35 10 -41 12 -9 11 -15 -7 -38 -15 -19 -45 -34 -105
-53 -46 -14 -86 -32 -89 -40 -9 -24 5 -43 42 -55 36 -12 36 -12 12 -21 -54
-20 -77 -67 -48 -96 17 -17 53 -15 68 3 16 19 54 19 70 0 15 -19 56 -20 67 -2
12 21 41 28 47 11 7 -19 60 -18 76 1 14 17 50 21 50 5 0 -5 9 -14 20 -20 55
-30 97 43 53 92 -17 18 -5 51 22 62 20 7 19 43 -2 55 -17 9 -17 10 -1 16 17 7
17 9 1 36 -10 16 -25 29 -35 29 -27 0 -43 42 -28 70 10 19 10 25 -3 34 -8 7
-16 20 -18 31 -3 11 -11 20 -19 20 -23 0 -40 50 -57 170 -16 115 -22 135 -57
174 l-21 24 30 -7 c17 -4 37 -9 45 -12 11 -3 20 7 29 33 8 20 21 50 31 65 l17
29 22 -61 c24 -65 50 -86 161 -131 30 -12 66 -33 81 -46 14 -13 36 -23 49 -23
23 0 70 -30 122 -78 23 -21 25 -27 15 -49 -10 -23 -8 -28 16 -47 19 -15 27
-30 25 -46 -2 -19 3 -26 29 -33 39 -12 43 -33 36 -173 l-6 -101 27 -7 c15 -4
31 -4 36 -1 6 4 10 -9 10 -29 0 -37 27 -66 62 -66 26 0 40 33 28 65 -13 35
-13 35 14 35 29 0 39 21 26 55 -10 27 -8 29 33 39 24 6 27 11 25 41 -2 27 3
39 20 51 12 8 22 21 22 28 0 27 -81 186 -103 201 -12 8 -34 15 -49 15 -17 0
-31 7 -38 20 -6 12 -21 20 -35 20 -14 0 -25 5 -25 10 0 6 -12 21 -26 33 -14
12 -45 54 -68 92 -39 64 -48 73 -119 110 -53 27 -84 50 -97 72 -11 18 -25 33
-32 33 -10 0 -13 26 -12 101 1 76 -2 102 -13 106 -19 8 -16 81 8 181 23 97 20
147 -13 208 -11 22 -20 51 -19 65 1 15 -6 32 -14 39 -8 7 -15 23 -15 35 0 16
-7 25 -24 29 -15 4 -26 16 -30 32 -4 14 -20 46 -37 72 -50 77 -99 162 -139
242 -68 135 -131 188 -270 227 -71 19 -81 33 -87 112 -2 35 -9 58 -18 64 -8 4
-15 15 -15 24 0 30 -23 91 -44 117 -25 30 -84 45 -139 36z m241 -1039 c5 -15
37 -57 71 -93 l60 -65 -12 -39 c-6 -21 -21 -47 -34 -57 -12 -9 -27 -33 -33
-52 -6 -19 -17 -35 -23 -35 -7 0 -40 19 -74 43 -56 38 -63 46 -63 76 0 21 -10
47 -26 68 -14 19 -23 40 -20 48 3 8 27 26 55 39 38 20 53 34 62 61 16 42 24
44 37 6z m227 -1505 c-31 -13 -55 -11 -55 5 0 5 19 9 43 9 l42 -1 -30 -13z
m153 -28 c-5 -16 -48 -24 -48 -10 0 11 17 20 38 21 8 1 12 -5 10 -11z m-258
-23 c0 -9 -9 -15 -25 -15 -16 0 -25 6 -25 15 0 9 9 15 25 15 16 0 25 -6 25
-15z"/>
</g>
</svg>
