<?xml version="1.0" standalone="no"?>
<!DOCTYPE svg PUBLIC "-//W3C//DTD SVG 20010904//EN"
 "http://www.w3.org/TR/2001/REC-SVG-20010904/DTD/svg10.dtd">
<svg version="1.0" xmlns="http://www.w3.org/2000/svg"
 width="512.000000pt" height="512.000000pt" viewBox="0 0 512.000000 512.000000"
 preserveAspectRatio="xMidYMid meet">

<g transform="translate(0.000000,512.000000) scale(0.100000,-0.100000)"
fill="#000000" stroke="none">
<path d="M507 4089 c-229 -34 -429 -216 -487 -444 -19 -76 -20 -111 -20 -1085
0 -974 1 -1009 20 -1085 52 -204 212 -366 425 -432 57 -17 148 -18 2115 -18
1967 0 2058 1 2115 18 221 68 385 241 430 453 22 103 22 2025 0 2128 -44 210
-202 378 -425 453 -53 17 -140 18 -2085 19 -1117 1 -2056 -2 -2088 -7z m173
-629 l0 -470 -92 0 c-139 -1 -193 -26 -229 -105 -17 -36 -19 -70 -19 -325 0
-255 2 -289 19 -325 36 -79 90 -104 229 -105 l92 0 0 -470 0 -470 -32 0 c-182
1 -336 80 -415 211 -65 109 -63 71 -63 1159 0 1088 -2 1050 63 1159 79 132
218 204 405 210 l42 1 0 -470z m1790 80 l0 -390 -27 -6 c-101 -22 -206 -74
-280 -139 -69 -61 -136 -163 -169 -260 -23 -67 -27 -97 -27 -185 0 -88 4 -118
27 -185 71 -206 234 -352 449 -399 l27 -6 0 -390 0 -390 -807 2 -808 3 -3
1355 c-1 745 0 1361 3 1368 3 9 175 12 810 12 l805 0 0 -390z m1795 -980 l0
-1365 -807 -3 -808 -2 0 390 0 390 28 6 c222 49 393 209 458 429 24 81 24 229
0 310 -65 220 -236 380 -458 429 l-28 6 0 390 0 390 808 -2 807 -3 0 -1365z
m307 1361 c129 -17 251 -95 315 -202 65 -109 63 -71 63 -1159 0 -1088 2 -1050
-63 -1159 -79 -131 -233 -210 -414 -211 l-33 0 0 470 0 470 93 0 c138 1 192
26 228 105 17 36 19 70 19 325 0 255 -2 289 -19 325 -36 79 -90 104 -228 105
l-93 0 0 470 0 470 33 0 c17 -1 62 -5 99 -9z m-2102 -1361 l0 -419 -38 13
c-160 57 -264 179 -293 344 -26 145 48 322 169 406 31 21 142 74 160 76 1 0 2
-189 2 -420z m300 370 c142 -73 240 -271 211 -432 -29 -165 -133 -287 -293
-344 l-38 -13 0 419 0 419 38 -13 c22 -8 58 -24 82 -36z m-2090 -370 l0 -261
-82 3 -83 3 -3 245 c-1 134 0 250 3 257 3 9 29 13 85 13 l80 0 0 -260z m3925
0 l0 -255 -82 -3 -83 -3 0 261 0 261 83 -3 82 -3 0 -255z"/>
<path d="M1323 3736 c-150 -49 -268 -187 -292 -343 -44 -281 206 -531 485
-485 230 38 394 261 355 483 -24 140 -113 259 -238 321 -60 29 -77 33 -167 35
-65 2 -116 -2 -143 -11z m232 -175 c211 -95 192 -411 -29 -476 -59 -18 -83
-19 -139 -4 -146 37 -231 212 -170 350 22 48 87 113 137 135 46 20 153 17 201
-5z"/>
<path d="M1392 3387 c-23 -25 -29 -75 -12 -106 16 -31 65 -46 101 -30 35 14
63 66 52 96 -22 63 -99 85 -141 40z"/>
<path d="M1339 2202 c-255 -67 -386 -356 -269 -597 38 -79 118 -158 200 -198
62 -30 71 -32 180 -32 111 0 118 1 183 33 266 131 325 475 118 683 -63 62
-140 104 -220 119 -73 14 -114 12 -192 -8z m187 -167 c181 -54 239 -289 103
-424 -48 -49 -103 -71 -177 -71 -75 0 -116 15 -172 67 -147 131 -89 377 101
432 50 14 89 13 145 -4z"/>
<path d="M1415 1868 c-32 -17 -45 -39 -45 -78 0 -96 131 -110 163 -18 10 28
-13 78 -44 93 -33 18 -47 18 -74 3z"/>
<path d="M3532 3732 c-67 -24 -154 -84 -192 -133 -75 -94 -111 -228 -91 -338
64 -344 475 -478 719 -234 207 207 148 555 -117 685 -58 29 -76 33 -165 36
-79 2 -113 -2 -154 -16z m232 -166 c51 -21 117 -85 139 -135 61 -138 -24 -313
-170 -350 -56 -15 -80 -14 -139 4 -221 65 -240 378 -29 476 49 23 151 25 199
5z"/>
<path d="M3613 3388 c-30 -34 -34 -55 -19 -92 18 -44 64 -63 106 -46 37 15 50
37 50 83 0 69 -91 105 -137 55z"/>
<path d="M3580 2209 c-211 -41 -368 -269 -331 -480 24 -140 113 -259 238 -321
65 -32 72 -33 183 -33 109 0 118 2 181 32 82 41 160 118 199 197 155 319 -120
674 -470 605z m153 -170 c146 -37 231 -212 170 -350 -22 -50 -88 -114 -139
-135 -50 -21 -150 -18 -199 6 -170 82 -202 305 -62 425 65 56 147 75 230 54z"/>
<path d="M3629 1865 c-29 -16 -52 -66 -42 -93 32 -90 163 -78 163 15 0 45 -9
62 -41 78 -34 18 -47 18 -80 0z"/>
</g>
</svg>
